<svg xmlns="http://www.w3.org/2000/svg" xmlns:xlink="http://www.w3.org/1999/xlink" viewBox="0 0 390.6 277.26" preserveAspectRatio="none"><defs><style>.cls-1{fill:url(#linear-gradient);}.cls-2{fill:url(#linear-gradient-2);}.cls-3{fill:#5fddc5;}.cls-4{opacity:0.8;}.cls-5{fill:url(#linear-gradient-3);}</style><linearGradient id="linear-gradient" x1="35.57" y1="-22.56" x2="357.28" y2="302.09" gradientUnits="userSpaceOnUse"><stop offset="0" stop-color="#2d6dd0"/><stop offset="0.18" stop-color="#3464cb"/><stop offset="0.49" stop-color="#454abc"/><stop offset="0.88" stop-color="#6221a4"/><stop offset="0.99" stop-color="#6c139c"/></linearGradient><linearGradient id="linear-gradient-2" x1="122.32" y1="102.08" x2="316.9" y2="102.08" gradientUnits="userSpaceOnUse"><stop offset="0" stop-color="#ec8580"/><stop offset="0.15" stop-color="#eb8489"/><stop offset="0.39" stop-color="#ea82a3"/><stop offset="0.69" stop-color="#e87fcc"/><stop offset="0.99" stop-color="#e57cfb"/></linearGradient><linearGradient id="linear-gradient-3" x1="60.39" y1="211.52" x2="218.3" y2="211.52" gradientUnits="userSpaceOnUse"><stop offset="0" stop-color="#cb84de"/><stop offset="0.16" stop-color="#c288e0"/><stop offset="0.43" stop-color="#a892e7"/><stop offset="0.77" stop-color="#7fa3f1"/><stop offset="0.99" stop-color="#60b0f9"/></linearGradient></defs><title>88</title><g id="Layer_2" data-name="Layer 2"><g id="Layer_1-2" data-name="Layer 1"><rect class="cls-1" width="390.6" height="277.26"/><path class="cls-2" d="M271.79.11h-77a105.49,105.49,0,0,0-17.51,24.53c-9.47,19.44-36,33.34-44,44.09s-13,24.53-10.29,37.67c3.61,17.61,19.42,29.65,34.09,40L207.43,182c11.89,8.41,24.14,17,38.26,20.55s30.75,1,40.28-10c17.34-20.07,2-51.82,9.35-77.29,4.75-16.38,18.83-29.36,21.22-46.25,2.66-18.82-9.94-36.23-23.18-49.87A169.51,169.51,0,0,0,271.79.11Z"/><path class="cls-3" d="M26.33,50.82c8.92-3.78,6.88-10,16-12.18L41,39.86c19-9,39-21.23,55.26-24.15,1.28-4.7,19.71-6.71,19-12,11.45-2,9.52-.26,23.12-3.76H89.12a11.86,11.86,0,0,1-4,3.08L81.44.67c-13.56,6.15-28.63,10-40.19,19.82,0-.6-.16-1.76,1.92-3-6.09,3-23.92,10.24-20.88,13.69a.92.92,0,0,1,.41.37,2.14,2.14,0,0,1-.41-.37C19.54,29.8,8.75,39.21,3,44.38l-.21-2.77C1.6,43.45.76,44.82,0,46V66c8.68-7.09,19.58-14.48,28.05-17Z"/><path class="cls-3" d="M347,272.83c2.45,1.79,2.28,7.68,3.38,1.25-4.6-3.41.18-12.28.05-17.47-3.3-.56,0-11.93,1.21-21.19.77.72,6.05-16.43,9.56-24.9l.46.39c-2.65-2.5,0-11.29.4-18,1.85.58,2.47,1.91,2.6,5.67l1.11-6.26c-.75-1.65-1-3.69-.79-7.79l2.17,1.91c1-8.51-.7-17.15.77-28.23-2.28-.41-6.14,8.48-7.86-2.55,1.14-.46,3.34-1,3.87,2-.13-1-1.18-3.42-.82-5.42.78,1.45,1.65,2.95,2.36,4.47.61-5.08-1.89-2.52-2-6.46,1.76-.11.75-3.14,2.21-2.78.41,1.06-.16,3.68.58,5.16,0-2.42,0-5.09,0-7.45-.06-2.82-.58-5.37-.35-6.94-.81,1.11-1.7.92-4-2.31-1.17-2.38-2.44-3.29-2.91-4.17a2.63,2.63,0,0,1-.59-1.71c.06-.82.65-1.35-2.23-3.33-1.4-.44-4.07,0-6.2-.43-2.17.6-4,1.31-4,2.62a9.4,9.4,0,0,1-5.08,0c-1.23,1-3.65,2-5.64,3.91-1.81,1.6-3.67,3-5.06,4.49-2.81,2.92-4.54,5.16-1.76,4.51l1-.62c-.14.16-.29.35-.46.56-8.64,11.53-21.47,20.15-29.9,31.33l-.64-.59c-4.72,6.89-11.73,14.23-14.25,19.89-1.64,1.82-5.05,3.23-5.12,1.76-3.73,5.12-3.48,6.33-10.73,12,3.19-5.67-2.47.67,3.59-5.5-6.1,5.48-8.34,5.85-12.73,13.74.5-3.64-6.26,2.36-8.58,5.42l5.17-2.78a68.79,68.79,0,0,1-8.67,8.16l-.46-3.52c-7.19,4.14-11.64,9.86-16.32,14.74s-9.84,8.8-16.43,8.54c-2.85,3.71,8.24-2.38,6,1.33-6.86,3.24-15.27,1.53-17.15,2.07a13.85,13.85,0,0,0-8.31,3c-1.91,1.24-4.32,2.81-8.69,1.52.88,1,2,4.68-5.87,3.42-3.34-1.54-4.58-3.71-4.37-5.09s1.34-1.76,3.1-1.27c1.26.54,1.69,1.17,1.49,1.47,2,.41,4.37.64,2.6-1.12l-1.05.75a32.88,32.88,0,0,1-4.53-3.88c-1.37-1.4-1.8-2.92-.67-2.81-3.34-2.15-2.54-.26-.76,2.54a39.24,39.24,0,0,1-4.28-7.77,15.51,15.51,0,0,1-.69-9.23c-.73,1.16-1.86,2.33-1.87,1.05,1.09-5.94,1.55-7.31,1-8.41s-1.29-1.77.41-6.08c3.85-3.83,2.29,3.21,5.78-5,4.13-3.59,2.73.76,2.46,2.85,2.51-7.55,10.31-9.09,14.3-11.32-1,1-2,2-2.89,3.09A21,21,0,0,1,195.1,202l-3.2-.44c2.32-1.09,4.21-2.2,4.62-1.42,1.68-2.54-3.64-1.94.26-6.31,3.63-.84,9.59-6.14,12-4.17-9.9,3.82-.14,2.34-4.39,5.48a24.14,24.14,0,0,1,4.36-1.83c.51.1-.11.69-.73,1.16,11.27-2.56,3.32-5,14.37-10.09-.76,2.09,3.88,1.45,5.6.19-4.59,2.22-3.3-1.24.27-4.41,7.76-2.73,7.44-5.26,11-7.42-1.49.73-2.92,1.52-4.44,2.19.61-2.19,4.12-4.2,8.29-7.94.31.19.17.55-.14,1,4.14-4.1,12-5.46,16.38-12,3.6-2,2.36,1.85,5.37-.16,5.3-8.42,8.93-6.23,14.29-15.22-3.52.94-3.37,1.65-.49-5.18-3.07,4.63-6.27,9.21-9.71,13.64,1.69-3.32,3.24-6.68,4.74-10-3.2,3.81-5.94,8.82-8.26,10.77,2.18-4.9,2.18-4.14-.7-3.58,7-2.9,7.52-11.21,13.89-16.05l4,3.36c9.13-8.35,10.41-18.75,18.76-32-1,1.41-2.11,2.71-3.16,4.06-.78-2.78,4.24-8.7,5.41-13.82,1.43,1.11,3.23-1.66,5-3.44-.69-.12.43-2.9,1.06-6.18s.8-7-.77-8a42.86,42.86,0,0,0,2.84-7.85c.31-7.9-4-13.78-8.22-16.08-4.39-2.45-8.82-3.9-16.22-3.64,2.22-1.19,1.73-1.86,1.84-2.6.12-.49,1.07-1.73,7.23-.79a13.1,13.1,0,0,0-4.31-1,18.87,18.87,0,0,0-3.75-.26c-2.28.28-3.44.69-3.38,1.28-1.61-.28-5.07,1.11-7.82,3-3,1.71-5.49,3.8-7.66,4-1.08,1.64-.71,3.37-4.48,5.86a.46.46,0,0,1-.48-.5c-.32,1.11-4.73,4.83-.73,4.11-13.43,3-25.29,22.52-35.76,26.72-5.58,6.53-12.17,14.41-17.31,20.18-.05-.72-.62-.61.5-1.56-8.41,6.76-.75,8.19-10.22,15.93-6.23,2.69,3.18-5.79-.19-3.65-5.39-2.6-9.21,11.37-17.12,15.18l1.06-1.69c-5.6,3.32-8.5,12.72-15.61,19.95,0,0,0-.71-.6-.63-2.48,7.09-10.63,17.41-16.77,25,.46-3.74,2.18-4-.74-4.25-2.77,3.37,3.55,1.6-2,8.33-2.86,1.18-8,4.91-10.32,3.75l5.62-5.9c-5.15.8-7.31,7.59-10.77,10.17l-.57-1.36c-8.62,8.79-6.35,11.65-16.72,19.88l1.71-.05c-3.66,7.18-5.87,2.22-10.34,8.27-1.23-.57-2.44-1.2-3.64-1.85-3.26,3.13-12.53,10.74-20.9,11.55l8.49-4.72a52.43,52.43,0,0,0,8.29-6.11c-3.83,2.35-12.92,5.65-14.83,7.21,1.61-.58,3.41-1.78,5.13-1.76-4,4-11.72,6.62-20.09,3.21,1.88-3-2.83-4.9-6.56-9.28s-6.19-11.36-4.13-14.65c-2.78-6.35-2.26-14.09.18-20.95s6.8-12.55,12.72-19.19c-8.15,1,3.41-3.85-1-6.87,3-3.23,4.35-4.24,4.9-4.23l-.87.41.91-.41h0A125.45,125.45,0,0,1,88.79,141c3.48-.44-2.83,3.3-1.76,4.09,8.12-4.94,4.53-.33,10.61-2.46-2.12-1,1.38-4.12,6.67-6.26l-8.07,1.82c10.5-9.49,12.5-1.92,23.71-11.46l-3.18,3.72c6.07-4.36,24.08-13.86,27.85-21.47,1.44-.17,3.71.15,1.13,2.22,15.53-8.92,30.49-25.54,43.17-31.44l-.32,1.86c2.48-2.25,3.23-5.37,7.35-6.77.15.57-.3,1.85,1,1,1.16-1.39,5.69-7.1,9.65-9.15l-2.1,3.45C219.4,61,223.34,50.94,233.77,40.83c2.5,3,13.72-5.15,19.15-9.62l.21.57a106.49,106.49,0,0,0,18.09-21.61c2-3.29,4-6.59,5.82-10.17H248.92a136.92,136.92,0,0,1-9.12,10.31c1.59,1.95-2.4,5-3.82,9.14-7.5,5.95-16.78,11.39-25.57,18.82-5.55,6-.53,3.12-2.47,6.56-1.85-1.36-10.84,5.91-7.11.94-10.75,8.78-13.75,11.18-27,22.94,2.1-.35,4.08-1.29,3.62,0-2.38,2.19-6.51,3.44-6.75,2.29l.56-.67c-14.32,14.33-41.46,20-52.43,31.81l.64-.64c-4.23,3.47-8.49,6.82-12.89,10.19-6.8,3.32,3.15-3.68-2.43-2.19-13.64,11.9-25.6,13.41-36.63,25.41-6.87,1.29-15.67,9.22-22,20.39-6.81,11.82-8.18,25.05-10.06,34.53L37,188.71c1.57,4.74-.61,5.87-.55,9.61,1.13-.72.79-5.44,2-2.55,1.57,9.94,5.45,20.38,13.39,28.79a43.06,43.06,0,0,0,31.3,13c11.61,0,21.82-4,30.6-8.56a141.27,141.27,0,0,0,23.56-16c10-8.64,0-10.88,14.19-19.56l-1.21,5.31c16-20.77,36.22-38.23,50.67-58.7-.49,1.55.13,2.17-1.5,4,5.08-2.5,13-14.34,11.82-15.56,2.74-2.72,1.76.39,4-.77,4.43-3.05,6.86-11.53,10.29-12.13.38-.08.05.59-.36,1.3,2.58-3.65,9.94-10.26,6.33-9.63,7.16-5.9,11.41-13.46,17.65-17.49,1.47-5.39,12.16-9.58,10.72-13.42,2.16,3.28,13.85-7.51,17.33-11.45-.79,1.82,4.39-1.15,3.52,1.31,4.83-2.8,7.64-3.9,6.67-5.85,1.75,1,1.78,1.37,2.55,1.63a7.86,7.86,0,0,1,2.17.78c1.39.51,2.47,5-1,7,.33,7.33-2.32,16.34-5.54,24.38a148,148,0,0,1-12.16,23.3c-2.69-2.67,10.23-16.15,6-17.74-6.71,14.44-9.81,24.39-21.28,36.07-3.24,2.75.33-2.92.7-4.45-9.52,13.38-22,22.42-32.47,31.24,1.66.41.25,2.76-2.05,5.27s-5.29,5-5.76,6c0,.09,0,.16-.07.25a.48.48,0,0,1,.07-.25c1.81-6.22-14,5.25-9.61-3.95-1.61,1.12-3.52,2.94-2.6,3.85-2.81.91-4,.67-1.82-1.84-9.48,5.56-5.16,5.5-14.13,10.16-.39-.78,1.26-2.08,1.73-3.48a71.76,71.76,0,0,1-15,12.59c.1-.64-.83-.67.32-1.7a44.87,44.87,0,0,0-12.63,16.33,107.47,107.47,0,0,0-7.37,21.11c-3.19-5.82-2,5.83-4.91,7.09a38.55,38.55,0,0,0,3,10.46,22.49,22.49,0,0,1,.4-4.52,24.24,24.24,0,0,0,5.92,11.31c2.7,3.05,5.49,5.4,8.27,8a27.81,27.81,0,0,1-5.87-3.35,31.47,31.47,0,0,0,14.5,8.41,32.73,32.73,0,0,1-7.85-5.11c4.19,1.56,4.45.3,4.85-.23s.8-.52,5.55,1.45c-2.13.06,7.39,1.72,11.59,3.1h0c3.9-1.17,7.38-2.92,13-3.49,1.71.61-.17,3.82.94,4.24,1.51-1.86,5.77-3.4,10-5.38s8.23-4.4,9.53-6.81c-1,1.36-.29,2.89.35,3l1.6-3.49c3.39-1.12,4-1.17,4.23.32,9.12-5.48-5-1.53,6.29-7.1-.69.71-.11.71-1.59,2.17,10.77-6.66,17.67-16.18,26.39-23.26,4.74,0-6.53,7.44-1.84,6.8,11.46-11.83,20.51-26.91,31.39-38l-2.19,1.92c-2.08-4.71,9.39-7.13,12.9-14.48-1,1.67.29,3.61.24,2.87,7.62-7.41,13.32-17.11,23.32-29.5l-.52,2.22c2.57-1.72,5.43-4.67,8.49-7.18,1.52-1.25,3-2.76,4.49-3.76l2.16-1.55a13.68,13.68,0,0,1,1.42-.88c.42-1.64,2.91-2.84,1.06-3.82,3.78-.19,6.94.87,8.68,3.48a18.8,18.8,0,0,1,2.07,3.85,12.75,12.75,0,0,1,.83,2.17l.9,3.1c2,8.8,2.64,18.38-1.17,27,.26-2.15-.53-5.19-.68-3.49-.14,5.08-.42,10.21-.9,15.33,2.23-.87,1.56-1.79,3.58-4.79,1,2.12,1.16,6.65.48,10.49-.16-7.2-3.17-.49-4.93,2.19.71-.37,1.18.77,1.86.65-5.24,7.16,3.84,2.23-1.18,12.54l-.89-.84c-.49,4.15-.24,8.29-1.7,12.57-2.77,1.21.12-4.61-1.68-5.4-1.57,6.22,1,13.29-2.53,18.37-.06-2.81.9-6.61.95-9.4-4.26,5.44-3.74,6.37-5.21,10.91l.16-.44c-1.2,3.5-2.31,7.06-3.31,10.71l1.21-2.7c4.79,8.9-1.45,17,3.5,27.89-4.4-10.42-2.33-1.67-5.08-2.27-.55,3-.84,7.64-1.73,6.45.11.18.19.36.29.54h9.12A10.26,10.26,0,0,1,347,272.83Z"/><g class="cls-4"><path class="cls-5" d="M79.61,274a35.81,35.81,0,0,0,3.61,3.16h61.29A130.61,130.61,0,0,0,160,267.35c11.9-8.58,22.76-18.53,34.68-27.08,5.91-4.24,12.21-8.26,16.47-14.15,3.71-5.12,5.64-11.36,6.53-17.62,1.94-13.58-.93-28-8.87-39.2s-21.11-18.8-34.83-19l-3.34-1c-16.38-6.61-35.49-2.83-50.91,5.79s-27.89,21.57-40.1,34.33c-8.34,8.71-17.09,18.22-18.92,30.15-1.31,8.57,1.17,17.22,3.83,25.48C68,255.48,71.87,266.18,79.61,274Z"/></g></g></g></svg>